# xmcd
# Track frame offsets:
# 150
# 11782
# 24967
# 35942
# 46845
# 57695
# 70785
# 84635
# 97952
# 108100
# 122310
# 135347
# 145890
# 157590
# 169135
# 186540
# 201090
# 218400
# 230012
# 240745
# 253872
# 271632
#
# Disc length: 3794 seconds
# Revision: 0
# Processed by: cddbd v1.4PL0 Copyright (c) Steve Scherf et al.
# Submitted via: VisiTrax 2.9.5.181 - For more info visit www.synapsa.com
#
DISCID=290ed016
DTITLE=Crytal Gayle - Crystal Gayle Collection
DYEAR=1999
DGENRE=
TTITLE0=Don't it make my Brown Eyes Blue
TTITLE1=Talking in your sleep
TTITLE2=Somebody Loves You
TTITLE3=Ready for the times to get better
TTITLE4=You
TTITLE5=The trouble with me (is you)
TTITLE6=River Road
TTITLE7=Why have you left the one you left me for
TTITLE8=Wrong Road Again
TTITLE9=Green Door
TTITLE10=Wayward Wind
TTITLE11=High Time
TTITLE12=Sweet Baby on my mind
TTITLE13=Never ending song of love
TTITLE14=You never miss a real good thing
TTITLE15=Cry me a river
TTITLE16=Someday Soon
TTITLE17=A woman's heart
TTITLE18=Restless
TTITLE19=Dreaming my dreams with you
TTITLE20=One more time
TTITLE21=I wanna come back to you
EXTD=
EXTT0=
EXTT1=
EXTT2=
EXTT3=
EXTT4=
EXTT5=
EXTT6=
EXTT7=
EXTT8=
EXTT9=
EXTT10=
EXTT11=
EXTT12=
EXTT13=
EXTT14=
EXTT15=
EXTT16=
EXTT17=
EXTT18=
EXTT19=
EXTT20=
EXTT21=
PLAYORDER=
